<svg width="200" height="200" viewBox="0 0 200 200" fill="none" xmlns="http://www.w3.org/2000/svg">
  <rect width="200" height="200" rx="20" fill="#E0F2F1" fill-opacity="0.5"/>
  <path d="M100 56C85.3333 56 73.3333 68 73.3333 82.6667C73.3333 97.3333 85.3333 109.333 100 109.333C114.667 109.333 126.667 97.3333 126.667 82.6667C126.667 68 114.667 56 100 56ZM100 100C90.6667 100 82.6667 92 82.6667 82.6667C82.6667 73.3333 90.6667 65.3333 100 65.3333C109.333 65.3333 117.333 73.3333 117.333 82.6667C117.333 92 109.333 100 100 100Z" fill="#00897B" fill-opacity="0.7"/>
  <path d="M133.333 144C133.333 128 104.667 121.333 100 121.333C95.3333 121.333 66.6667 128 66.6667 144V150.667H133.333V144ZM76.6667 141.333C78.6667 138 89.3333 130.667 100 130.667C110.667 130.667 121.333 138 123.333 141.333H76.6667Z" fill="#00897B" fill-opacity="0.7"/>
  <circle cx="100" cy="100" r="75" stroke="#00897B" stroke-opacity="0.5" stroke-width="4"/>
</svg> 